<svg width="126" height="38" viewBox="0 0 126 38" fill="none" xmlns="http://www.w3.org/2000/svg">
<path fill-rule="evenodd" clip-rule="evenodd" d="M47.7977 28.3274C47.1094 28.2772 46.6536 28.2372 46.2126 28.1744C46.0817 28.1549 45.9999 28.0472 46.0002 27.9494V10.5827C45.9951 10.4826 46.077 10.362 46.2002 10.3453C46.5487 10.2878 46.8742 10.2441 47.3839 10.1925C47.9462 10.1387 48.5615 10.0911 49.2315 10.0553C49.9005 10.0192 50.5795 10 51.2758 10C52.1017 10 52.8322 10.0282 53.4756 10.0911C54.1136 10.1536 54.6903 10.2616 55.2031 10.4079C55.7117 10.5599 56.1896 10.7623 56.6318 11.0216C57.0558 11.2454 57.4245 11.5316 57.7464 11.8758C58.0682 12.2202 58.318 12.6197 58.4972 13.0738C58.6806 13.5311 58.7675 14.0357 58.7726 14.5902C58.7726 15.1218 58.6654 15.6281 58.4561 16.1158C58.2417 16.6029 57.9166 17.0419 57.4743 17.4399C57.0378 17.8328 56.4791 18.1646 55.8009 18.4288V18.4815C56.4931 18.6613 57.1095 18.9528 57.6487 19.3534C58.1844 19.7565 58.6088 20.2572 58.9166 20.8582C59.2238 21.4516 59.3852 22.1363 59.3889 22.9104C59.3889 23.4655 59.3087 23.9788 59.152 24.4476C58.9959 24.919 58.7833 25.3477 58.5014 25.7356C58.2195 26.1261 57.894 26.47 57.5146 26.7747C57.0816 27.1226 56.5384 27.4177 55.8897 27.6644C55.2391 27.906 54.4624 28.0934 53.5605 28.2195C52.6581 28.3452 51.6097 28.412 50.4184 28.412C49.4149 28.4069 48.5401 28.3801 47.7977 28.3274ZM50.0439 13.0883C50.2006 13.0616 50.4144 13.0331 50.6895 13.0114C50.9714 12.9947 51.3331 12.9806 51.7841 12.9806C52.7118 12.9806 53.4272 13.1594 53.9217 13.5137C54.4213 13.8655 54.6725 14.3893 54.6762 15.0738C54.6762 15.5242 54.5518 15.9147 54.3062 16.2464C54.0562 16.5816 53.6899 16.8359 53.1987 17.0242C52.7118 17.208 52.1045 17.2965 51.3818 17.3016H50.0439V13.0883ZM50.0442 20.2256H51.4352C51.9481 20.2256 52.4277 20.2707 52.8682 20.366C53.3104 20.4632 53.6983 20.6109 54.0342 20.8125C54.3673 21.0129 54.6314 21.2773 54.8185 21.5959C55.0056 21.917 55.1004 22.3023 55.1046 22.7494C55.1007 23.2244 55.0056 23.6298 54.8185 23.9667C54.6365 24.2979 54.383 24.5702 54.0562 24.7808C53.7344 24.9863 53.3639 25.1377 52.9492 25.2366C52.5298 25.3353 52.0867 25.3804 51.6229 25.3804C51.2794 25.3804 50.9767 25.3804 50.7221 25.3767C50.467 25.366 50.2391 25.3533 50.0442 25.3251V20.2256Z" fill="white"/>
<path fill-rule="evenodd" clip-rule="evenodd" d="M71.926 18.2677C72.1179 18.9533 72.2116 19.6848 72.2079 20.4682L72.2076 25.0572C72.2076 25.4744 72.2113 25.8764 72.2254 26.2657C72.2436 26.6587 72.2639 27.0232 72.2971 27.357C72.3277 27.6922 72.3677 27.9786 72.4228 28.2252H68.7526C68.6016 28.2252 68.5116 28.0941 68.5116 27.9836V26.9102H68.4297C67.9993 27.4342 67.4586 27.8348 66.8189 28.1096C66.1767 28.3806 65.4619 28.5193 64.6827 28.5193C64.0163 28.5153 63.4233 28.4034 62.9018 28.1841C62.3788 27.9653 61.9366 27.6702 61.5703 27.2899C61.2075 26.9127 60.9281 26.4837 60.7402 26.0058C60.5492 25.5283 60.4502 25.0223 60.4502 24.4943C60.4544 23.6441 60.6378 22.9018 60.999 22.2715C61.3619 21.6398 61.8843 21.1213 62.5583 20.705C63.2315 20.2942 64.0399 19.9859 64.9806 19.7803C65.9235 19.5774 66.9753 19.4745 68.1355 19.4745V19.3155C68.1416 19.1306 68.1099 18.9392 68.0471 18.7413C67.9838 18.5414 67.8688 18.3576 67.6994 18.1828C67.5292 18.0123 67.2896 17.8696 66.9703 17.7617C66.6592 17.6537 66.2527 17.6013 65.7531 17.5976C65.301 17.5976 64.8563 17.6461 64.4087 17.7363C63.9682 17.8242 63.5479 17.9463 63.1583 18.0932C62.8804 18.198 62.6252 18.3139 62.3974 18.4385C62.2666 18.509 62.095 18.4371 62.0514 18.2857L61.4415 16.1464C61.4283 16.0996 61.408 15.9508 61.5582 15.8648C61.8336 15.7174 62.1797 15.5747 62.5845 15.4273C63.0765 15.2486 63.6455 15.0955 64.2987 14.97C64.9553 14.8466 65.6833 14.7823 66.476 14.7786C67.5669 14.7823 68.4764 14.9351 69.212 15.2308C69.9535 15.5245 70.5381 15.933 70.9803 16.4571C71.4183 16.978 71.7336 17.579 71.926 18.2677ZM68.2529 23.8044C68.2656 23.6889 68.2706 23.5685 68.2706 23.4464L68.2704 22.0245C67.548 22.0194 66.9046 22.082 66.3333 22.2123C65.762 22.3431 65.3108 22.5613 64.9752 22.8595C64.6457 23.1648 64.4764 23.5761 64.4674 24.0894C64.4713 24.4404 64.5417 24.7313 64.6826 24.9588C64.8202 25.1911 65.012 25.3608 65.2531 25.4778C65.4942 25.5897 65.767 25.6483 66.0748 25.6483C66.4078 25.6421 66.7164 25.5765 67.0025 25.4417C67.2895 25.3081 67.5381 25.1282 67.7432 24.9061C67.9494 24.6778 68.0968 24.4263 68.1888 24.1447C68.2172 24.0384 68.2372 23.9254 68.2529 23.8044Z" fill="white"/>
<path fill-rule="evenodd" clip-rule="evenodd" d="M74.6114 28.2246H78.1916C78.3609 28.2246 78.4377 28.0783 78.4377 27.9831L78.4352 20.6559C78.4352 20.4631 78.4459 20.2807 78.4636 20.1059C78.4819 19.9278 78.5176 19.7696 78.5713 19.6377C78.669 19.3806 78.8074 19.1353 78.9941 18.9064C79.1759 18.6756 79.4043 18.4816 79.6808 18.3339C79.9576 18.1865 80.2845 18.1106 80.66 18.1067C81.1495 18.1106 81.5467 18.2313 81.8519 18.4692C82.154 18.7066 82.3735 19.0378 82.5152 19.4618C82.6536 19.8872 82.7254 20.3813 82.722 20.9488V27.9833C82.722 28.122 82.8345 28.2249 82.9631 28.2249H86.5458C86.7146 28.2249 86.7928 28.082 86.7928 27.9833V20.4684C86.7877 19.5029 86.6727 18.666 86.4341 17.9545C86.202 17.2441 85.8777 16.6521 85.4524 16.1873C85.0335 15.7224 84.5373 15.3745 83.9659 15.1473C83.3994 14.9173 82.7797 14.8057 82.1057 14.8057C81.5568 14.8096 81.0598 14.8801 80.6243 15.0162C80.1813 15.1499 79.7925 15.3297 79.4631 15.5428C79.1275 15.7585 78.8431 15.9868 78.6096 16.2335C78.3792 16.4751 78.1958 16.7065 78.0613 16.9256H77.982V15.3497C77.982 15.1583 77.8203 15.1005 77.737 15.1005H74.2578L74.3352 16.2591C74.3796 16.9498 74.3655 17.4262 74.3655 18.2445V27.9794C74.3653 28.1322 74.4834 28.2246 74.6114 28.2246Z" fill="white"/>
<path fill-rule="evenodd" clip-rule="evenodd" d="M100.635 22.3121C100.619 22.4818 100.601 22.6332 100.582 22.7566C100.565 22.877 100.459 22.9647 100.344 22.9652H92.1101C92.141 23.3839 92.2563 23.756 92.4679 24.0694C92.6715 24.3829 92.9433 24.642 93.2839 24.8461C93.6235 25.0527 94.0122 25.2044 94.4401 25.3073C94.873 25.411 95.3268 25.4612 95.8072 25.4612C96.4964 25.4612 97.1361 25.415 97.7252 25.3214C98.2189 25.2427 98.6994 25.1274 99.1632 24.9805C99.2684 24.9535 99.4378 24.9794 99.476 25.1708C99.5335 25.469 99.5913 25.7672 99.649 26.0654C99.7395 26.5323 99.83 26.9991 99.9191 27.4655C99.9422 27.5543 99.8896 27.6905 99.7644 27.7389C99.148 27.9805 98.4715 28.1669 97.7474 28.2864C96.9491 28.4209 96.1057 28.4913 95.2165 28.4913C93.7301 28.4837 92.4679 28.2111 91.4262 27.6735C90.3871 27.1329 89.5963 26.3621 89.0531 25.3656C88.5068 24.3716 88.2314 23.1829 88.2275 21.8086C88.2275 21.1382 88.3107 20.4679 88.4764 19.8006C88.6452 19.1353 88.9018 18.5047 89.245 17.9049C89.5884 17.3104 90.0205 16.7779 90.5485 16.3124C91.0709 15.8479 91.6898 15.4805 92.4037 15.2108C93.1202 14.9489 93.9312 14.8091 94.8421 14.8051C95.684 14.8093 96.4312 14.9314 97.0734 15.1764C97.7153 15.4188 98.2664 15.7489 98.7252 16.1743C99.1849 16.5977 99.5554 17.0908 99.8448 17.6458C100.131 18.2006 100.344 18.7951 100.478 19.4254C100.612 20.0558 100.68 20.7019 100.68 21.3531C100.68 21.706 100.665 22.0245 100.635 22.3121ZM92.2794 19.305C92.1716 19.6095 92.11 19.8995 92.0833 20.173H96.9026C96.9077 19.919 96.8773 19.6405 96.8092 19.3371C96.744 19.0381 96.6222 18.7452 96.457 18.4728C96.2877 18.1952 96.0491 17.9668 95.7521 17.7887C95.4494 17.6142 95.0637 17.52 94.601 17.5164C94.1706 17.52 93.8068 17.6099 93.4966 17.7796C93.1953 17.9502 92.9393 18.1684 92.7407 18.4418C92.5382 18.7091 92.3871 19.0008 92.2794 19.305Z" fill="white"/>
<path fill-rule="evenodd" clip-rule="evenodd" d="M102.252 27.6645C102.724 27.8985 103.282 28.0933 103.934 28.2503C104.66 28.4245 105.456 28.5147 106.32 28.5198C107.57 28.5108 108.615 28.3273 109.454 27.9597C110.289 27.5977 110.917 27.0968 111.337 26.4574C111.761 25.8178 111.97 25.0832 111.97 24.2513C111.968 23.6167 111.842 23.0493 111.596 22.5435C111.35 22.0429 110.971 21.5958 110.455 21.2053C109.938 20.8225 109.264 20.4865 108.437 20.1987C107.906 20.0166 107.486 19.8469 107.173 19.6955C106.865 19.541 106.643 19.3857 106.512 19.2292C106.379 19.0677 106.316 18.8814 106.32 18.6708C106.325 18.3432 106.461 18.0889 106.727 17.9051C106.994 17.7228 107.374 17.6278 107.874 17.6227C108.244 17.6278 108.611 17.6678 108.967 17.7436C109.323 17.8242 109.655 17.9235 109.959 18.0348C110.139 18.1042 110.302 18.1727 110.445 18.2395C110.533 18.2908 110.733 18.2764 110.787 18.0723L111.386 15.6505C111.405 15.5747 111.35 15.5271 111.317 15.5118C110.923 15.3218 110.436 15.1575 109.848 15.016C109.213 14.8646 108.512 14.7871 107.741 14.7786C106.929 14.7837 106.196 14.89 105.541 15.1056C104.89 15.3187 104.326 15.6246 103.861 16.0125C103.393 16.4029 103.037 16.8585 102.791 17.3817C102.541 17.9051 102.414 18.478 102.41 19.0996C102.397 19.6236 102.517 20.1229 102.763 20.6111C103.014 21.0991 103.416 21.5473 103.97 21.962C104.523 22.3792 105.254 22.7361 106.161 23.0445C106.656 23.2091 107.042 23.367 107.319 23.5144C107.596 23.6582 107.788 23.8135 107.903 23.9792C108.013 24.1504 108.067 24.3468 108.062 24.5752C108.067 24.9143 107.932 25.1737 107.656 25.3611C107.379 25.5486 106.933 25.6436 106.32 25.6487C105.91 25.6436 105.486 25.5951 105.045 25.4998C104.598 25.402 104.183 25.2816 103.786 25.1336C103.516 25.035 103.277 24.9436 103.075 24.8283C102.965 24.7641 102.781 24.8233 102.737 24.9822L102.138 27.39C102.119 27.459 102.127 27.5926 102.252 27.6645Z" fill="white"/>
<path fill-rule="evenodd" clip-rule="evenodd" d="M125.879 22.3121C125.863 22.4818 125.846 22.6332 125.827 22.7566C125.809 22.877 125.706 22.9647 125.589 22.9652H117.355C117.385 23.3839 117.503 23.756 117.713 24.0694C117.918 24.3829 118.19 24.642 118.529 24.8461C118.867 25.0527 119.256 25.2044 119.684 25.3073C120.117 25.411 120.573 25.4612 121.05 25.4612C121.743 25.4612 122.381 25.415 122.97 25.3214C123.464 25.2427 123.943 25.1274 124.409 24.9805C124.512 24.9535 124.681 24.9794 124.72 25.1708C124.808 25.6269 124.897 26.083 124.986 26.5389C125.046 26.8479 125.106 27.1568 125.166 27.4655C125.189 27.5543 125.135 27.6905 125.009 27.7389C124.393 27.9805 123.715 28.1669 122.992 28.2864C122.193 28.4209 121.35 28.4913 120.463 28.4913C118.977 28.4837 117.713 28.2111 116.671 27.6735C115.632 27.1329 114.842 26.3621 114.298 25.3656C113.754 24.3716 113.477 23.1829 113.472 21.8086C113.472 21.1382 113.558 20.4679 113.723 19.8006C113.892 19.1353 114.146 18.5047 114.489 17.9049C114.833 17.3104 115.267 16.7779 115.794 16.3124C116.315 15.8479 116.935 15.4805 117.651 15.2108C118.365 14.9489 119.177 14.8091 120.087 14.8051C120.931 14.8093 121.677 14.9314 122.319 15.1764C122.962 15.4188 123.511 15.7489 123.969 16.1743C124.429 16.5977 124.8 17.0908 125.091 17.6458C125.376 18.2006 125.59 18.7951 125.725 19.4254C125.858 20.0558 125.925 20.7019 125.925 21.3531C125.925 21.706 125.91 22.0245 125.879 22.3121ZM117.525 19.305C117.418 19.6095 117.356 19.8995 117.329 20.173H122.148C122.155 19.919 122.123 19.6405 122.055 19.3371C121.99 19.0381 121.868 18.7452 121.704 18.4728C121.534 18.1952 121.296 17.9668 120.998 17.7887C120.694 17.6142 120.31 17.52 119.849 17.5164C119.418 17.52 119.051 17.6099 118.744 17.7796C118.442 17.9502 118.186 18.1684 117.985 18.4418C117.784 18.7091 117.631 19.0008 117.525 19.305Z" fill="white"/>
<path d="M93.8441 31.9549C93.5821 31.6653 93.2718 31.4378 92.9132 31.2723C92.5546 31.1068 92.1926 31.024 91.8271 31.024C91.4685 31.024 91.1306 31.093 90.8134 31.2309C90.5031 31.3619 90.2273 31.5481 89.986 31.7894C89.7515 32.0308 89.5688 32.3135 89.4377 32.6376C89.3067 32.9548 89.2412 33.2996 89.2412 33.6719C89.2412 34.0374 89.3067 34.3822 89.4377 34.7063C89.5688 35.0235 89.7515 35.3028 89.986 35.5441C90.2273 35.7855 90.5031 35.9751 90.8134 36.113C91.1306 36.2509 91.4685 36.3199 91.8271 36.3199C92.1926 36.3199 92.5511 36.244 92.9028 36.0923C93.2545 35.9337 93.5683 35.72 93.8441 35.451L94.5681 36.2061C94.3268 36.4475 94.051 36.6578 93.7407 36.8371C93.4372 37.0164 93.1166 37.1543 92.7787 37.2508C92.4477 37.3473 92.1098 37.3956 91.765 37.3956C91.2341 37.3956 90.741 37.3025 90.2859 37.1163C89.8308 36.9233 89.4309 36.6578 89.0861 36.3199C88.7482 35.982 88.4827 35.589 88.2896 35.1407C88.0965 34.6856 88 34.1995 88 33.6823C88 33.1651 88.0965 32.6859 88.2896 32.2445C88.4827 31.7963 88.7516 31.4033 89.0964 31.0654C89.4481 30.7275 89.8515 30.4655 90.3066 30.2793C90.7686 30.0931 91.2686 30 91.8064 30C92.1512 30 92.4891 30.0448 92.8201 30.1345C93.1511 30.2241 93.4648 30.3517 93.7613 30.5172C94.0579 30.6827 94.3233 30.8827 94.5578 31.1171L93.8441 31.9549ZM100.855 30.0724H102.106L105.272 37.3129H103.968L101.445 31.3033L98.931 37.3129H97.6587L100.855 30.0724ZM99.2517 34.6029H103.586V35.6372H99.2517V34.6029ZM111.962 30.0724C112.893 30.0724 113.61 30.2896 114.113 30.724C114.624 31.1516 114.879 31.755 114.879 32.5342C114.879 33.3479 114.624 33.9823 114.113 34.4374C113.61 34.8856 112.893 35.1097 111.962 35.1097H110.245V37.3129H109.024V30.0724H111.962ZM111.962 34.065C112.52 34.065 112.951 33.9443 113.255 33.703C113.565 33.4547 113.72 33.0755 113.72 32.5652C113.72 32.0756 113.565 31.7136 113.255 31.4791C112.951 31.2378 112.52 31.1171 111.962 31.1171H110.245V34.065H111.962ZM112.003 34.6339H113.203L115.003 37.3129H113.617L112.003 34.6339ZM122.256 30.0724C122.8 30.0724 123.3 30.162 123.755 30.3413C124.211 30.5206 124.604 30.7723 124.935 31.0964C125.273 31.4205 125.535 31.8032 125.721 32.2445C125.907 32.6859 126 33.1686 126 33.6926C126 34.2167 125.907 34.6994 125.721 35.1407C125.535 35.5752 125.273 35.9579 124.935 36.2889C124.597 36.613 124.197 36.8646 123.735 37.0439C123.273 37.2232 122.769 37.3129 122.225 37.3129H119.287V30.0724H122.256ZM122.287 36.2682C122.638 36.2682 122.963 36.2061 123.259 36.082C123.562 35.9579 123.824 35.782 124.045 35.5545C124.273 35.32 124.448 35.0476 124.573 34.7373C124.704 34.4201 124.769 34.0754 124.769 33.703C124.769 33.3237 124.704 32.9789 124.573 32.6686C124.442 32.3514 124.262 32.0756 124.035 31.8411C123.807 31.6067 123.538 31.4274 123.228 31.3033C122.925 31.1792 122.594 31.1171 122.235 31.1171H120.508V36.2682H122.287Z" fill="#00B766"/>
<path fill-rule="evenodd" clip-rule="evenodd" d="M8.62096 12.9755C8.62096 12.9755 9.90646 6.52389 16.7504 7.74488C23.596 8.965 28.9678 11.7797 35.8978 5.87817C35.8978 5.87817 34.4316 11.6209 26.9087 12.7303C19.3866 13.8406 15.9598 9.773 8.62096 12.9755ZM0 -0.00210571H36.9797V37.0557H0V29.1345C4.68742 29.9818 9.46188 31.1939 15.9487 30.2354C29.3093 28.2656 31.9139 18.0646 31.9139 18.0646C20.3224 27.9383 11.1821 24.0781 0 21.7838V19.4208C7.65667 17.9383 12.6049 21.8865 21.7401 20.5388C32.5819 18.9376 34.6953 10.6599 34.6953 10.6599C24.7066 19.1683 16.9618 15.1118 7.0933 13.3506C4.00778 12.8013 1.70602 13.3317 0.000288715 14.322L0 -0.00210571Z" fill="white"/>
</svg>
