<svg width="1280" height="726" viewBox="0 0 1280 726" fill="none" xmlns="http://www.w3.org/2000/svg">
<path d="M438.5 0C309.691 258.854 218.804 383.016 0 539V726H739C859 432 1021 267 1280 121V0H438.5Z" fill="#009048"/>
<path d="M737.5 726C857.5 432 1021 265.23 1280 119.23V277.5C1026.21 394.094 921.594 496.386 772.5 726H737.5Z" fill="url(#paint0_linear_1353_775)"/>
<path d="M769.5 726C918.594 496.386 1026.21 390.094 1280 273.5V726L769.5 726Z" fill="#159842"/>
<path d="M542.5 0C422.5 294 259 460.77 0 606.77V441.5C253.79 324.906 352.906 229.614 502 0H542.5Z" fill="url(#paint1_linear_1353_775)"/>
<path d="M510.5 0C361.406 229.614 253.79 335.906 0 452.5V6.10352e-05L510.5 0Z" fill="#159842"/>
<defs>
<linearGradient id="paint0_linear_1353_775" x1="1279.46" y1="362.018" x2="0.568756" y2="368.579" gradientUnits="userSpaceOnUse">
<stop stop-color="#199944"/>
<stop offset="1" stop-color="#299F5A"/>
</linearGradient>
<linearGradient id="paint1_linear_1353_775" x1="1279.46" y1="362.018" x2="0.568756" y2="368.579" gradientUnits="userSpaceOnUse">
<stop stop-color="#299F5A"/>
<stop offset="1" stop-color="#199944"/>
</linearGradient>
</defs>
</svg>
